<?xml version="1.0" encoding="UTF-8"?>
<svg version="1.1" xmlns="http://www.w3.org/2000/svg" width="820" height="682">
<path d="M0 0 C270.6 0 541.2 0 820 0 C820 225.06 820 450.12 820 682 C549.4 682 278.8 682 0 682 C0 456.94 0 231.88 0 0 Z " fill="#F5F5F5" transform="translate(0,0)"/>
<path d="M0 0 C0.7528125 0.67675781 1.505625 1.35351562 2.28125 2.05078125 C3.2403125 2.90285156 4.199375 3.75492187 5.1875 4.6328125 C7.77540151 6.95472953 10.31995966 9.31888749 12.84814453 11.70556641 C14.15516706 12.93243083 15.48095232 14.13922833 16.80859375 15.34375 C29.25725744 27.06607351 38.46813778 41.95317331 46.28125 57.05078125 C46.78954346 58.02772949 46.78954346 58.02772949 47.30810547 59.02441406 C49.56710551 63.44405731 51.5437217 67.90200656 53.28125 72.55078125 C53.53616211 73.23221191 53.79107422 73.91364258 54.05371094 74.61572266 C56.72228892 81.95683598 58.58251443 89.43519378 60.28125 97.05078125 C60.49652344 97.99953125 60.71179688 98.94828125 60.93359375 99.92578125 C63.08973132 109.99824874 63.4677985 119.99817316 63.46655273 130.28076172 C63.46873128 132.28357032 63.48722483 134.28633941 63.50585938 136.2890625 C63.51880999 145.05231189 62.77391902 153.41887389 61.28125 162.05078125 C61.15113525 162.84097656 61.02102051 163.63117188 60.88696289 164.4453125 C54.99839772 198.28157567 36.9270989 232.87198269 11.28125 256.05078125 C10.62125 256.05078125 9.96125 256.05078125 9.28125 256.05078125 C9.28125 256.71078125 9.28125 257.37078125 9.28125 258.05078125 C7.29948963 259.80963175 5.31590174 261.43867372 3.21875 263.05078125 C2.58461182 263.5398999 1.95047363 264.02901855 1.29711914 264.53295898 C-0.69716665 266.05424896 -2.70386303 267.55690059 -4.71875 269.05078125 C-5.31171875 269.4905127 -5.9046875 269.93024414 -6.515625 270.38330078 C-41.33483635 295.78211176 -85.32746564 304.83092232 -127.71875 298.98828125 C-145.08957764 296.26227116 -161.37175105 290.52833762 -176.71875 282.05078125 C-177.68554688 281.55964844 -178.65234375 281.06851562 -179.6484375 280.5625 C-193.89078937 273.23491317 -208.761687 262.54474765 -218.95703125 250.15234375 C-221.04621233 247.66014992 -223.28985065 245.34435684 -225.53125 242.98828125 C-231.41701779 236.53003756 -236.08738606 229.43958182 -240.71875 222.05078125 C-241.358125 221.05175781 -241.9975 220.05273438 -242.65625 219.0234375 C-247.35390308 211.37926542 -250.68361396 203.32089726 -253.93774414 194.99072266 C-254.66299417 193.18927323 -255.45966024 191.41702727 -256.26171875 189.6484375 C-258.03398857 185.27240399 -259.17717519 180.88347165 -260.28125 176.30078125 C-260.49813477 175.41261719 -260.71501953 174.52445313 -260.93847656 173.609375 C-272.18452387 126.98691484 -263.74542742 80.99579758 -239.06835938 40.27758789 C-232.89312691 30.35367265 -225.03951945 21.90941153 -217.03759766 13.44873047 C-215.97825562 12.32585145 -214.93055178 11.19199812 -213.88671875 10.0546875 C-193.64858293 -11.31063563 -164.76710437 -25.16026997 -136.46875 -31.69921875 C-135.10254517 -32.01560303 -135.10254517 -32.01560303 -133.70874023 -32.33837891 C-88.2823051 -42.37823466 -35.66214595 -30.32538115 0 0 Z " fill="#F2F2F2" transform="translate(510.71875,328.94921875)"/>
<path d="M0 0 C4.0123272 0.9859351 6.07546451 2.26679392 9.28125 4.8359375 C9.79574707 5.23852783 10.31024414 5.64111816 10.84033203 6.0559082 C12.45690299 7.32327439 14.05822002 8.60779676 15.65625 9.8984375 C28.11580301 19.93342885 41.53184461 28.27567699 55.13671875 36.6640625 C67.15099276 44.08111074 78.62708276 52.0671833 89.65625 60.8984375 C90.44644531 61.51460937 91.23664063 62.13078125 92.05078125 62.765625 C109.47908506 76.61420224 124.88427107 92.54890283 138.37597656 110.22412109 C139.56181731 111.77494029 140.76082691 113.31566584 141.9609375 114.85546875 C155.09776787 131.94269829 167.31146626 150.991604 175.65625 170.8984375 C176.33644949 172.43061802 177.01897943 173.96176491 177.703125 175.4921875 C194.70391586 213.83732807 204.91137342 255.97106217 204.84375 298.0234375 C204.84284363 299.07073532 204.84284363 299.07073532 204.84191895 300.13919067 C204.81087658 313.46299021 204.19402737 326.65489921 202.65625 339.8984375 C202.5432959 340.88231445 202.4303418 341.86619141 202.31396484 342.87988281 C198.86407942 371.2086608 190.10876348 397.87806531 178.65625 423.8984375 C178.31271484 424.69169434 177.96917969 425.48495117 177.61523438 426.30224609 C165.75568869 453.45965883 148.99341634 477.57286004 129.65625 499.8984375 C129.13289062 500.51082275 128.60953125 501.12320801 128.0703125 501.75415039 C117.68985297 513.79970943 106.31117375 525.25024751 93.65625 534.8984375 C92.72683594 535.64480469 91.79742188 536.39117188 90.83984375 537.16015625 C74.89541384 549.80573859 57.75937067 560.29941798 39.77050781 569.76025391 C38.11486993 570.65154534 36.49471678 571.60881022 34.890625 572.58984375 C32.30520173 574.10403395 29.71790766 575.11409712 26.90625 576.1484375 C23.15438811 577.54907653 19.43901487 578.9713817 15.765625 580.56640625 C-1.58538415 588.0739539 -19.95217407 592.66202236 -38.34375 596.8984375 C-39.09769043 597.0722998 -39.85163086 597.24616211 -40.62841797 597.42529297 C-48.04982981 599.02551106 -55.54227868 599.81487504 -63.09375 600.5234375 C-63.78638947 600.58880707 -64.47902893 600.65417664 -65.19265747 600.7215271 C-114.00835146 605.22008223 -164.06469424 599.27807305 -209.34375 579.8984375 C-210.11960449 579.57149902 -210.89545898 579.24456055 -211.69482422 578.90771484 C-243.86792189 565.26538907 -274.27720382 546.4063798 -299.34375 521.8984375 C-300.17132813 521.09132324 -300.99890625 520.28420898 -301.8515625 519.45263672 C-304.26208267 517.09289526 -306.66584239 514.72687794 -309.06240845 512.35299683 C-310.48634562 510.94290525 -311.91341127 509.53597506 -313.34057617 508.12915039 C-339.65539613 481.84253244 -359.49831827 449.2483975 -373.34375 414.8984375 C-373.66939941 414.10115234 -373.99504883 413.30386719 -374.33056641 412.48242188 C-397.98655212 354.16392578 -403.1572682 285.86559029 -386.34375 224.8984375 C-386.13137695 224.12258301 -385.91900391 223.34672852 -385.70019531 222.54736328 C-380.25805332 202.98558772 -373.1233575 184.20186554 -364.34375 165.8984375 C-363.9420459 165.06086914 -363.5403418 164.22330078 -363.12646484 163.36035156 C-353.69368883 143.97467798 -341.75064599 125.77535363 -328.34375 108.8984375 C-327.64507812 108.00898438 -326.94640625 107.11953125 -326.2265625 106.203125 C-314.79158371 91.91957498 -301.82770824 77.16373836 -287.34375 65.8984375 C-286.68375 65.8984375 -286.02375 65.8984375 -285.34375 65.8984375 C-285.34375 65.2384375 -285.34375 64.5784375 -285.34375 63.8984375 C-283.06962268 62.01914521 -280.78617767 60.26059492 -278.40625 58.5234375 C-277.33056763 57.72921387 -277.33056763 57.72921387 -276.2331543 56.91894531 C-273.943638 55.23567484 -271.6454107 53.56505702 -269.34375 51.8984375 C-268.61220703 51.36766602 -267.88066406 50.83689453 -267.12695312 50.29003906 C-259.24405401 44.59211243 -251.29289585 39.1649938 -242.96484375 34.1328125 C-228.64335315 25.38147459 -215.07037578 15.71028485 -202.00341797 5.18847656 C-199.28840868 3.07813395 -197.52587966 1.92995994 -194.09375 1.3359375 C-189.56965546 2.01455168 -188.03247886 3.18849762 -185.04296875 6.52734375 C-174.38160099 21.40424083 -172.63837596 39.79137439 -174.84375 57.4609375 C-179.23334254 77.38060569 -193.57853034 90.3856784 -209.34375 101.8984375 C-210.313125 102.61128906 -211.2825 103.32414062 -212.28125 104.05859375 C-218.40015366 108.41180313 -224.71070678 112.37854817 -231.10302734 116.31445312 C-245.1407886 124.96701084 -257.67806763 134.15104384 -269.68359375 145.42578125 C-271.83726994 147.42765647 -274.02355983 149.33031459 -276.28125 151.2109375 C-287.87052694 161.33958243 -297.27482961 173.5435819 -306.34375 185.8984375 C-307.02179688 186.81367188 -307.69984375 187.72890625 -308.3984375 188.671875 C-346.42491145 241.41827435 -363.02069663 310.70455919 -352.85498047 374.98925781 C-347.66677362 405.65485218 -338.35484645 433.71538651 -324.15625 461.3984375 C-323.59873047 462.48922607 -323.04121094 463.58001465 -322.46679688 464.70385742 C-318.66322761 471.92584556 -314.24026149 478.381674 -309.34375 484.8984375 C-308.55713805 486.03310916 -307.77896638 487.17376316 -307.015625 488.32421875 C-301.4051535 496.7513294 -295.07807993 504.34992492 -288.34375 511.8984375 C-287.61140137 512.72553223 -287.61140137 512.72553223 -286.86425781 513.56933594 C-281.97741347 519.07485148 -277.06013075 524.41899093 -271.3984375 529.1484375 C-269.90772933 530.41809008 -268.45929825 531.73791713 -267.0390625 533.0859375 C-255.13995174 544.37020059 -241.49125046 553.66281525 -227.34375 561.8984375 C-226.16141435 562.60930185 -224.97912448 563.32024235 -223.796875 564.03125 C-212.46221625 570.73441633 -200.52366081 575.93213115 -188.34375 580.8984375 C-187.61639648 581.19878906 -186.88904297 581.49914062 -186.13964844 581.80859375 C-171.77748986 587.64079939 -156.48360346 590.78921239 -141.34375 593.8984375 C-140.38855469 594.09630859 -139.43335938 594.29417969 -138.44921875 594.49804688 C-91.89779265 603.60593459 -39.63102175 596.13892165 3.65625 577.8984375 C4.84992188 577.39957031 6.04359375 576.90070312 7.2734375 576.38671875 C31.18429913 565.86704406 53.47660356 552.59048693 73.08447266 535.28149414 C74.2183543 534.28375579 75.3595971 533.29436134 76.50537109 532.31030273 C87.81560526 522.55775718 98.79070754 511.94444362 107.65625 499.8984375 C108.35492187 498.99351562 109.05359375 498.08859375 109.7734375 497.15625 C125.16965669 477.07190871 137.45204649 455.48538539 146.65625 431.8984375 C147.05392578 430.91480225 147.45160156 429.93116699 147.86132812 428.91772461 C150.9100278 421.25273554 153.27487323 413.58315322 155.28125 405.5859375 C155.58119873 404.40749268 155.88114746 403.22904785 156.19018555 402.01489258 C158.36279315 393.35717322 160.29273942 384.72167048 161.65625 375.8984375 C161.82326416 374.97740234 161.99027832 374.05636719 162.16235352 373.10742188 C163.99890101 362.08977156 164.01071596 351.16706756 163.96875 340.0234375 C163.96692719 339.02399109 163.96510437 338.02454468 163.96322632 336.99481201 C163.91742425 322.09377344 163.47130245 307.57264709 160.65625 292.8984375 C160.47932617 291.95000977 160.30240234 291.00158203 160.12011719 290.02441406 C152.83041121 251.8384413 137.75312512 216.2756106 114.65625 184.8984375 C114.2118457 184.28581055 113.76744141 183.67318359 113.30957031 183.04199219 C107.03088936 174.41785471 100.05107204 166.56518999 92.65625 158.8984375 C91.73102539 157.93236572 91.73102539 157.93236572 90.78710938 156.94677734 C74.73504617 140.25855311 57.07075295 127.64597254 37.48754883 115.39624023 C-10.67460477 85.26112424 -10.67460477 85.26112424 -18.34375 58.8984375 C-22.00006607 42.4687575 -20.38140839 23.9398642 -11.90625 9.2734375 C-11.08475267 8.12436491 -10.23098334 6.99754746 -9.34375 5.8984375 C-8.64958984 4.98771484 -8.64958984 4.98771484 -7.94140625 4.05859375 C-5.34110455 1.01686153 -4.06777985 -0.12355406 0 0 Z " fill="#020202" transform="translate(505.34375,40.1015625)"/>
<path d="M0 0 C2.4921875 1.46875 2.4921875 1.46875 4.875 3.5 C5.73996094 4.23347656 6.60492188 4.96695313 7.49609375 5.72265625 C10.40048046 8.36424354 13.1463417 11.1241003 15.8828125 13.9375 C19.98797508 17.93662517 24.5324413 21.41861916 29 25 C30.83395603 26.52008237 32.66729458 28.04091005 34.5 29.5625 C39.01187895 33.25812734 43.65951036 36.70918119 48.390625 40.1171875 C57.19850199 46.47257179 65.13896663 53.52594801 73 61 C73.83015625 61.78761719 74.6603125 62.57523438 75.515625 63.38671875 C81.16493169 68.88787929 86.14046563 74.79667155 91 81 C91.66273926 81.82419434 91.66273926 81.82419434 92.33886719 82.66503906 C105.13388546 98.61206601 116.43190711 116.85026138 123.8125 135.96484375 C124.69715767 138.22595891 125.61340159 140.45773266 126.5625 142.69140625 C143.30762798 182.83116301 148.09329673 229.21867801 140 272 C139.7831958 273.18746826 139.7831958 273.18746826 139.56201172 274.39892578 C133.52133631 306.66268823 119.57700864 338.69232697 100 365 C99.60989746 365.53141602 99.21979492 366.06283203 98.81787109 366.61035156 C92.72567075 374.88867777 86.11972625 382.58523851 79 390 C78.46358887 390.56364258 77.92717773 391.12728516 77.37451172 391.70800781 C44.25853424 426.34447054 0.62669042 447.55880847 -46 457 C-46.88574707 457.18111328 -47.77149414 457.36222656 -48.68408203 457.54882812 C-61.08597033 459.95678924 -73.47138239 460.20717073 -86.0625 460.1875 C-86.83790131 460.18656342 -87.61330261 460.18562683 -88.41220093 460.18466187 C-111.85303672 460.12333243 -133.29647913 456.57594275 -155.8125 449.9375 C-156.6058374 449.70450195 -157.3991748 449.47150391 -158.21655273 449.23144531 C-162.9721966 447.77747766 -167.45998219 445.99457606 -171.97924805 443.92163086 C-174.45200947 442.79384611 -176.97094126 441.80660291 -179.5 440.8125 C-200.84927876 431.91470656 -220.70924997 418.77575523 -237.69140625 403.125 C-239.82224256 401.16362106 -241.99179604 399.26305255 -244.1875 397.375 C-251.62290491 390.8615853 -257.8217538 383.71208163 -264 376 C-264.99 374.81083984 -264.99 374.81083984 -266 373.59765625 C-281.96414697 354.25400236 -293.01882626 332.29757788 -302 309 C-302.30953613 308.20094238 -302.61907227 307.40188477 -302.93798828 306.57861328 C-307.93050555 293.43117156 -310.56454943 279.81826942 -313 266 C-313.18908936 265.04947754 -313.37817871 264.09895508 -313.57299805 263.11962891 C-315.34052445 253.42460878 -315.3376957 243.76853138 -315.31567383 233.94677734 C-315.31253569 231.03313965 -315.33596969 228.12054261 -315.36132812 225.20703125 C-315.50546654 182.02982075 -302.03533311 139.39310023 -279 103 C-278.32195312 101.92492187 -277.64390625 100.84984375 -276.9453125 99.7421875 C-269.46503806 88.23638384 -261.0899167 77.81797145 -251.6640625 67.875 C-249.01989958 65.09392556 -249.01989958 65.09392556 -246.875 62.328125 C-245.15750489 60.19556857 -243.46235647 58.50870886 -241.375 56.75 C-239.16915994 54.8742309 -236.99604095 52.9962609 -234.890625 51.0078125 C-229.62133695 46.04741375 -224.08326281 41.8094654 -218.1875 37.625 C-206.70581605 29.45922354 -196.32631012 20.46275781 -186.1105957 10.76977539 C-177.06364617 2.19943366 -177.06364617 2.19943366 -173 1.4375 C-168.90422764 2.20545732 -167.68545693 3.84458811 -165 7 C-164.50371094 7.51949219 -164.00742187 8.03898438 -163.49609375 8.57421875 C-159.42357305 12.95294402 -156.99974675 17.38293358 -155 23 C-154.69964844 23.8146875 -154.39929688 24.629375 -154.08984375 25.46875 C-150.09184987 38.41109297 -149.67348943 54.78770236 -155.46875 67.19921875 C-156.22671875 68.58560547 -156.22671875 68.58560547 -157 70 C-157.72703125 71.37091797 -157.72703125 71.37091797 -158.46875 72.76953125 C-167.56301542 88.35014775 -182.15582217 100.1798253 -196.32543945 110.91748047 C-223.86798397 131.79762907 -244.38406631 154.63729255 -259.5 186 C-259.90951904 186.84788086 -260.31903809 187.69576172 -260.7409668 188.56933594 C-263.06447676 193.54056655 -264.88340542 198.48201245 -266.36157227 203.76733398 C-266.9722917 205.90310042 -267.67874434 207.97544754 -268.4375 210.0625 C-269.90531566 214.4195949 -270.99919511 218.84325803 -272.0625 223.3125 C-272.30601196 224.32485718 -272.30601196 224.32485718 -272.55444336 225.35766602 C-273.0677564 227.56603308 -273.53868827 229.78019547 -274 232 C-274.18385254 232.83080078 -274.36770508 233.66160156 -274.55712891 234.51757812 C-276.30747689 243.40180208 -276.3041679 252.20855881 -276.26074219 261.22607422 C-276.25004789 263.86319114 -276.26067657 266.49962279 -276.2734375 269.13671875 C-276.28202245 278.95138875 -275.79276146 288.32579299 -274 298 C-273.84869629 298.82177734 -273.69739258 299.64355469 -273.54150391 300.49023438 C-273.12507472 302.60735477 -272.66955775 304.70943199 -272.1875 306.8125 C-272.01935791 307.55532227 -271.85121582 308.29814453 -271.67797852 309.06347656 C-270.41572049 314.50248387 -268.98755945 319.88621825 -267.4375 325.25 C-267.23987061 325.9406958 -267.04224121 326.6313916 -266.83862305 327.34301758 C-265.60244214 331.48450375 -263.98969375 335.17249752 -262 339 C-261.54753906 340.07121094 -261.09507812 341.14242188 -260.62890625 342.24609375 C-252.37803482 361.74766737 -240.85809916 378.18595292 -227 394 C-226.2265625 394.8971875 -225.453125 395.794375 -224.65625 396.71875 C-198.66441047 426.371412 -160.32819455 446.03658923 -121.875 453.1875 C-120.98095459 453.35459473 -120.08690918 453.52168945 -119.16577148 453.69384766 C-83.71468313 459.9805807 -44.72688917 456.13254795 -12 441 C-11.08162354 440.58468018 -10.16324707 440.16936035 -9.21704102 439.74145508 C3.72500285 433.88347733 15.6869374 427.62125208 27 419 C27.93972656 418.28972656 28.87945313 417.57945312 29.84765625 416.84765625 C51.72090463 399.77502807 68.79522162 379.33050655 82 355 C82.52335937 354.04867188 83.04671875 353.09734375 83.5859375 352.1171875 C88.32241624 343.12038397 91.66556585 333.58356921 95 324 C95.26433838 323.2479126 95.52867676 322.4958252 95.80102539 321.72094727 C97.54806127 316.64010808 98.92075584 311.56076433 100.0625 306.3125 C100.22298828 305.61189453 100.38347656 304.91128906 100.54882812 304.18945312 C103.34380017 291.53911781 104.41003859 279.10028292 104.375 266.1875 C104.37445618 265.42742645 104.37391235 264.66735291 104.37335205 263.88424683 C104.29001671 238.37196546 99.18561912 214.52527326 89.19921875 191.06640625 C88.13640285 188.34878253 87.45643358 185.87284666 87 183 C86.34 183 85.68 183 85 183 C84.525625 181.824375 84.05125 180.64875 83.5625 179.4375 C71.80439344 153.31741554 51.7205271 131.95816991 29 115 C-19.93245755 78.07586339 -19.93245755 78.07586339 -24 51 C-24.82191299 34.27502636 -22.15657153 18.26301286 -11.3359375 4.953125 C-7.62477905 0.86594609 -5.78318743 -0.76229593 0 0 Z " fill="#020202" transform="translate(496,175)"/>
<path d="M0 0 C0.7528125 0.67675781 1.505625 1.35351562 2.28125 2.05078125 C3.2403125 2.90285156 4.199375 3.75492187 5.1875 4.6328125 C7.77540151 6.95472953 10.31995966 9.31888749 12.84814453 11.70556641 C14.15516706 12.93243083 15.48095232 14.13922833 16.80859375 15.34375 C29.25725744 27.06607351 38.46813778 41.95317331 46.28125 57.05078125 C46.78954346 58.02772949 46.78954346 58.02772949 47.30810547 59.02441406 C49.56710551 63.44405731 51.5437217 67.90200656 53.28125 72.55078125 C53.53616211 73.23221191 53.79107422 73.91364258 54.05371094 74.61572266 C56.72228892 81.95683598 58.58251443 89.43519378 60.28125 97.05078125 C60.49652344 97.99953125 60.71179688 98.94828125 60.93359375 99.92578125 C63.08973132 109.99824874 63.4677985 119.99817316 63.46655273 130.28076172 C63.46873128 132.28357032 63.48722483 134.28633941 63.50585938 136.2890625 C63.51880999 145.05231189 62.77391902 153.41887389 61.28125 162.05078125 C61.15113525 162.84097656 61.02102051 163.63117188 60.88696289 164.4453125 C54.99839772 198.28157567 36.9270989 232.87198269 11.28125 256.05078125 C10.62125 256.05078125 9.96125 256.05078125 9.28125 256.05078125 C9.28125 256.71078125 9.28125 257.37078125 9.28125 258.05078125 C7.29948963 259.80963175 5.31590174 261.43867372 3.21875 263.05078125 C2.58461182 263.5398999 1.95047363 264.02901855 1.29711914 264.53295898 C-0.69716665 266.05424896 -2.70386303 267.55690059 -4.71875 269.05078125 C-5.31171875 269.4905127 -5.9046875 269.93024414 -6.515625 270.38330078 C-41.33483635 295.78211176 -85.32746564 304.83092232 -127.71875 298.98828125 C-145.08957764 296.26227116 -161.37175105 290.52833762 -176.71875 282.05078125 C-177.68554688 281.55964844 -178.65234375 281.06851562 -179.6484375 280.5625 C-193.89078937 273.23491317 -208.761687 262.54474765 -218.95703125 250.15234375 C-221.04621233 247.66014992 -223.28985065 245.34435684 -225.53125 242.98828125 C-231.41701779 236.53003756 -236.08738606 229.43958182 -240.71875 222.05078125 C-241.358125 221.05175781 -241.9975 220.05273438 -242.65625 219.0234375 C-247.35390308 211.37926542 -250.68361396 203.32089726 -253.93774414 194.99072266 C-254.66299417 193.18927323 -255.45966024 191.41702727 -256.26171875 189.6484375 C-258.03398857 185.27240399 -259.17717519 180.88347165 -260.28125 176.30078125 C-260.49813477 175.41261719 -260.71501953 174.52445313 -260.93847656 173.609375 C-272.18452387 126.98691484 -263.74542742 80.99579758 -239.06835938 40.27758789 C-232.89312691 30.35367265 -225.03951945 21.90941153 -217.03759766 13.44873047 C-215.97825562 12.32585145 -214.93055178 11.19199812 -213.88671875 10.0546875 C-193.64858293 -11.31063563 -164.76710437 -25.16026997 -136.46875 -31.69921875 C-135.10254517 -32.01560303 -135.10254517 -32.01560303 -133.70874023 -32.33837891 C-88.2823051 -42.37823466 -35.66214595 -30.32538115 0 0 Z M-134.71875 37.05078125 C-135.47849121 37.25445312 -136.23823242 37.458125 -137.02099609 37.66796875 C-158.99464227 43.78828799 -177.22429165 55.48328419 -193.71875 71.05078125 C-194.46769531 71.73527344 -195.21664062 72.41976562 -195.98828125 73.125 C-217.39759497 93.40948113 -231.59955119 124.61997227 -232.84521484 154.03735352 C-233.7242522 192.1299053 -224.3330084 226.60395877 -197.75024414 254.85766602 C-196.41045405 256.2592454 -195.06470614 257.65512215 -193.71875 259.05078125 C-192.98011719 259.85257813 -192.24148438 260.654375 -191.48046875 261.48046875 C-170.95915479 283.16478222 -138.54809876 296.3797561 -109.0625 297.38671875 C-106.78140378 297.41623416 -104.50003512 297.4288341 -102.21875 297.42578125 C-100.40431396 297.4244519 -100.40431396 297.4244519 -98.55322266 297.4230957 C-81.12670022 297.19667274 -63.43182882 293.79476279 -47.71875 286.05078125 C-47.11643555 285.75429688 -46.51412109 285.4578125 -45.89355469 285.15234375 C-32.5829914 278.53234312 -19.81447886 271.15897576 -9.71875 260.05078125 C-8.935 259.28765625 -8.15125 258.52453125 -7.34375 257.73828125 C10.68896506 239.27621583 22.5285747 218.27382829 28.28125 193.05078125 C28.46598877 192.34791992 28.65072754 191.64505859 28.84106445 190.92089844 C30.66908795 183.28396686 30.61870677 175.59918011 30.59692383 167.79443359 C30.59378381 165.45101459 30.61722028 163.10888702 30.64257812 160.765625 C30.78742207 126.7393867 16.02609785 95.65441062 -7.71875 71.61328125 C-34.43320817 45.41249261 -68.46476531 32.63040345 -105.57885742 32.67993164 C-115.61607445 32.86880613 -125.04267496 34.43987281 -134.71875 37.05078125 Z " fill="#020202" transform="translate(510.71875,328.94921875)"/>
<path d="M0 0 C1.6540686 0.01353516 1.6540686 0.01353516 3.34155273 0.02734375 C11.37654952 0.19838958 18.25661583 1.06071804 25.625 4.4375 C26.26228027 4.72189941 26.89956055 5.00629883 27.55615234 5.29931641 C35.96371042 9.09366848 43.75198478 13.19991449 50.625 19.4375 C51.43195313 20.12972656 52.23890625 20.82195312 53.0703125 21.53515625 C65.16580405 32.61344285 73.56088942 49.31491799 74.80200195 65.78662109 C75.38616564 88.89716061 70.57441875 109.17849572 54.53125 126.53515625 C40.36717254 141.04667244 20.86321416 149.11812402 0.6875 149.6875 C-18.1909682 149.42859529 -35.44728854 143.39231985 -49.375 130.4375 C-50.055625 129.84710937 -50.73625 129.25671875 -51.4375 128.6484375 C-61.53669069 119.37769604 -67.5956816 107.45021197 -71.375 94.4375 C-71.69339844 93.36757813 -72.01179688 92.29765625 -72.33984375 91.1953125 C-75.37665071 79.74780977 -75.55861822 67.87291026 -72.375 56.4375 C-72.13007813 55.51839844 -71.88515625 54.59929688 -71.6328125 53.65234375 C-65.78757832 34.02166788 -52.90001061 18.76509442 -35.375 8.4375 C-31.45761075 6.43056166 -27.56202044 4.78897432 -23.375 3.4375 C-22.1988916 3.05235229 -22.1988916 3.05235229 -20.99902344 2.65942383 C-13.92458116 0.51277991 -7.37181092 -0.07245579 0 0 Z " fill="#F4F4F4" transform="translate(409.375,470.5625)"/>
<path d="M0 0 C1.368586 1.14971772 2.72259843 2.3169775 4.0625 3.5 C4.86816406 4.17546875 5.67382812 4.8509375 6.50390625 5.546875 C25.98493046 22.32137523 38.83013564 45.78646975 41.0625 71.5 C42.92467213 102.53620222 34.6157358 129.12694017 14.4296875 152.91015625 C4.07896369 164.234463 -8.05345586 172.12208917 -21.9375 178.5 C-22.64261719 178.84675781 -23.34773437 179.19351563 -24.07421875 179.55078125 C-47.85143006 190.29824674 -76.05799712 188.54118211 -100.13671875 180.07421875 C-111.17683376 175.70711198 -120.98315614 169.22953527 -129.9375 161.5 C-131.20787109 160.50226563 -131.20787109 160.50226563 -132.50390625 159.484375 C-140.18443275 153.22160219 -145.47785621 144.65856204 -150.9375 136.5 C-151.43507813 135.7884375 -151.93265625 135.076875 -152.4453125 134.34375 C-162.83000417 118.92999381 -165.28062869 100.28791745 -165.375 82.1875 C-165.3850708 80.93654541 -165.3951416 79.68559082 -165.40551758 78.39672852 C-165.17185643 53.29886979 -154.16863317 27.5804962 -136.25390625 9.83203125 C-134.17021256 8.02678215 -132.06356637 6.2552804 -129.9375 4.5 C-128.99777344 3.71109375 -128.05804688 2.9221875 -127.08984375 2.109375 C-90.94015473 -27.45880626 -37.33864697 -28.31678694 0 0 Z M-119.0625 59.5625 C-131.93907478 74.74414064 -138.05928074 93.5596016 -137.12109375 113.38818359 C-135.2856914 134.50019196 -124.98645773 153.79907983 -108.9375 167.5 C-93.43872111 179.09521163 -75.34747925 185.22375728 -55.9375 183.5 C-35.13749422 180.47155672 -15.80277773 171.29453356 -2.8125 154.4375 C10.24225779 135.50412917 14.09257159 116.56675081 11.6640625 93.7578125 C9.40754893 82.00635873 3.09676191 69.39574454 -4.9375 60.5 C-5.66582031 59.69175781 -6.39414062 58.88351562 -7.14453125 58.05078125 C-19.35870797 45.18261712 -37.54198064 34.97198543 -55.58984375 34.12890625 C-81.40729576 33.62300299 -100.75632555 40.56893955 -119.0625 59.5625 Z " fill="#030303" transform="translate(471.9375,436.5)"/>
<path d="M0 0 C1.11955078 0.49306641 1.11955078 0.49306641 2.26171875 0.99609375 C11.03428875 5.30046171 17.88969202 13.05276843 21.16015625 22.26953125 C23.71838192 33.63281274 23.29799014 45.96986756 17 56 C9.99266165 65.27441841 1.74937155 72.07582756 -10 74 C-22.89612201 75.12700192 -33.04692583 72.28991007 -43.03515625 63.9453125 C-46.35582093 60.65765642 -48.72393382 57.06094483 -51 53 C-51.41378906 52.33613281 -51.82757813 51.67226562 -52.25390625 50.98828125 C-56.5474406 43.134255 -56.08840424 33.44202119 -54.375 24.875 C-50.57191387 12.9224436 -41.81937083 4.57300709 -30.890625 -1.09375 C-21.34097674 -4.9710508 -9.2547235 -4.37077764 0 0 Z " fill="#020202" transform="translate(426,151)"/>
<path d="M0 0 C6.85420115 3.51277809 12.5582181 8.32693658 15.9765625 15.32421875 C18.08043064 21.91109562 17.68093503 29.75232177 14.84375 36.0703125 C10.27555593 44.35881613 4.83871679 48.93266732 -4.1875 51.94140625 C-12.18346097 52.82735424 -18.31997331 52.4185838 -25.03125 47.77734375 C-31.67799511 42.11797744 -35.55095612 35.31666572 -36.57421875 26.67578125 C-36.9816172 18.31053309 -35.89224862 12.26069079 -30.1875 5.94140625 C-21.47330359 -1.30560403 -10.94011859 -3.63329919 0 0 Z " fill="#030303" transform="translate(420.1875,67.05859375)"/>
<path d="M0 0 C-0.66 0.33 -1.32 0.66 -2 1 C-1.01 1.99 -1.01 1.99 0 3 C-32.57976701 11.10047328 -89.64113661 22.31988091 -121 5 C-119.35 5 -117.7 5 -116 5 C-116 4.34 -116 3.68 -116 3 C-114.92298828 3.18175781 -114.92298828 3.18175781 -113.82421875 3.3671875 C-110.89371963 3.84161451 -107.96042172 4.28664068 -105.02197266 4.70898438 C-103.05916953 4.99148393 -101.09790944 5.28464045 -99.13671875 5.578125 C-88.21490771 7.04931021 -77.31419244 7.21483225 -66.3125 7.25 C-65.57618347 7.25517639 -64.83986694 7.26035278 -64.08123779 7.26568604 C-49.60224159 7.34587641 -35.67968436 5.65937213 -21.4375 3 C-20.51904297 2.835 -19.60058594 2.67 -18.65429688 2.5 C-14.70922213 1.77498985 -10.84333206 1.00700883 -7 -0.1484375 C-4.06665164 -0.98108065 -2.78465685 -1.11386274 0 0 Z " fill="#CFCFCF" transform="translate(476,627)"/>
<path d="M0 0 C-1.65 0.99 -3.3 1.98 -5 3 C-4.01 3.66 -3.02 4.32 -2 5 C-10.49436761 7.45305854 -19.00738854 9.50641809 -27.6875 11.1875 C-28.52885498 11.35411133 -29.37020996 11.52072266 -30.23706055 11.69238281 C-54.24484079 16.21488121 -98.47430749 19.35046168 -120 5 C-118.35 5 -116.7 5 -115 5 C-115 4.34 -115 3.68 -115 3 C-106.94029851 4.74626866 -106.94029851 4.74626866 -103.29296875 5.73046875 C-73.46785465 13.7681534 -40.04818398 12.19811669 -11 2 C-2.184107 -1.0920535 -2.184107 -1.0920535 0 0 Z " fill="#E3E3E3" transform="translate(472,618)"/>
<path d="M0 0 C-2.64 0.66 -5.28 1.32 -8 2 C-4.37 2 -0.74 2 3 2 C-2.86491936 4.93245968 -8.91237003 5.0408818 -15.375 5.625 C-16.08262482 5.69036957 -16.79024963 5.75573914 -17.51931763 5.8230896 C-41.0886494 7.9585449 -64.4612637 7.37599056 -88 5 C-88 4.67 -88 4.34 -88 4 C-85.36 3.67 -82.72 3.34 -80 3 C-82.64 2.34 -85.28 1.68 -88 1 C-83.97006402 -0.007484 -82.51617551 0.12805835 -78.5859375 0.91796875 C-68.97167277 2.50961899 -59.34702812 2.34433489 -49.625 2.3125 C-48.65143555 2.3126712 -47.67787109 2.31284241 -46.67480469 2.3130188 C-33.54645578 2.30315091 -20.83524219 1.81362883 -7.875 -0.44140625 C-4 -1 -4 -1 0 0 Z " fill="#272727" transform="translate(458,635)"/>
<path d="M0 0 C-0.66 0.33 -1.32 0.66 -2 1 C-1.01 1.99 -1.01 1.99 0 3 C-3.0809045 3.65777768 -6.16507677 4.29885902 -9.25 4.9375 C-10.53003906 5.21110352 -10.53003906 5.21110352 -11.8359375 5.49023438 C-24.17315987 8.02212703 -36.5171829 8.19959301 -49.0625 8.1875 C-50.21463486 8.18858765 -50.21463486 8.18858765 -51.39004517 8.18969727 C-63.03107805 8.18848357 -74.46934532 7.72421005 -86 6 C-86 5.67 -86 5.34 -86 5 C-80.39 5 -74.78 5 -69 5 C-69 4.67 -69 4.34 -69 4 C-67.68733154 4.01571045 -67.68733154 4.01571045 -66.34814453 4.03173828 C-46.17508173 4.24118393 -26.80428443 4.03126799 -7.0390625 -0.51171875 C-4.20676944 -0.96677869 -2.65339002 -0.97378106 0 0 Z " fill="#1B1B1B" transform="translate(459,627)"/>
<path d="M0 0 C0.99 0.495 0.99 0.495 2 1 C1.67 1.33 1.34 1.66 1 2 C1.99 2.66 2.98 3.32 4 4 C2.25174907 4.46496035 0.5012512 4.92147084 -1.25 5.375 C-2.71179688 5.75785156 -2.71179688 5.75785156 -4.203125 6.1484375 C-14.091412 8.36618088 -23.54999979 9.35729426 -33.6875 9.3125 C-34.90469727 9.31121094 -36.12189453 9.30992187 -37.37597656 9.30859375 C-46.84579674 9.20814485 -55.8009937 8.20776151 -65 6 C-65 5.67 -65 5.34 -65 5 C-63.02 5 -61.04 5 -59 5 C-59 4.34 -59 3.68 -59 3 C-58.16082031 3.144375 -57.32164062 3.28875 -56.45703125 3.4375 C-37.46910814 6.36811193 -18.38359964 6.12786655 0 0 Z " fill="#CFCFCF" transform="translate(443,617)"/>
<path d="M0 0 C-0.99 0.33 -1.98 0.66 -3 1 C-1.68 1.66 -0.36 2.32 1 3 C-9.21183104 4.59864271 -19.08281752 5.3225145 -29.4375 5.25 C-30.1082254 5.24822754 -30.77895081 5.24645508 -31.47000122 5.24462891 C-41.43255033 5.21377729 -51.18232295 4.78213911 -61 3 C-61 2.67 -61 2.34 -61 2 C-58.69 2 -56.38 2 -54 2 C-54 1.34 -54 0.68 -54 0 C-53.43909668 0.07001221 -52.87819336 0.14002441 -52.30029297 0.2121582 C-44.90124204 1.0518458 -37.56654849 1.18349486 -30.125 1.1875 C-28.34029297 1.20586914 -28.34029297 1.20586914 -26.51953125 1.22460938 C-19.65238195 1.235867 -13.24809756 0.73316756 -6.51904297 -0.66674805 C-3.98774073 -1.00162182 -2.39917193 -0.80406393 0 0 Z " fill="#0E0E0E" transform="translate(439,624)"/>
<path d="M0 0 C-1.65 0.99 -3.3 1.98 -5 3 C-4.01 3.66 -3.02 4.32 -2 5 C-33.45180801 14.082857 -33.45180801 14.082857 -49 13 C-50.62617171 12.91794705 -52.25249205 12.838816 -53.87890625 12.76171875 C-58.5875963 12.53345815 -63.29370831 12.27311123 -68 12 C-68 11.67 -68 11.34 -68 11 C-66.71609375 10.96261719 -65.4321875 10.92523437 -64.109375 10.88671875 C-45.67399783 10.24671138 -28.44330228 8.12392266 -11 2 C-2.184107 -1.0920535 -2.184107 -1.0920535 0 0 Z " fill="#CCCCCC" transform="translate(472,618)"/>
<path d="M0 0 C1.14770874 0.18937134 1.14770874 0.18937134 2.31860352 0.38256836 C10.83628388 1.74573017 19.35152881 2.74399197 27.9375 3.5625 C28.60355255 3.62692291 29.2696051 3.69134583 29.95584106 3.75772095 C41.95623663 4.91188417 53.94949378 5.63330044 66 6 C66 6.33 66 6.66 66 7 C5.73301258 7.78091983 5.73301258 7.78091983 -5 2 C-3.35 2 -1.7 2 0 2 C0 1.34 0 0.68 0 0 Z " fill="#EAEAEA" transform="translate(360,630)"/>
<path d="M0 0 C-1.98 0.66 -3.96 1.32 -6 2 C-5.01 2.66 -4.02 3.32 -3 4 C-16.93790326 7.65584348 -33.00204885 7.24590172 -47 4 C-47 3.67 -47 3.34 -47 3 C-45.02 3 -43.04 3 -41 3 C-41 2.34 -41 1.68 -41 1 C-40.42894531 1.0721875 -39.85789062 1.144375 -39.26953125 1.21875 C-28.04621143 2.50345434 -17.9938076 2.36731749 -6.99609375 -0.44140625 C-4.15144456 -0.97176457 -2.67193494 -0.98646009 0 0 Z " fill="#333333" transform="translate(434,617)"/>
<path d="M0 0 C13.2 0 26.4 0 40 0 C35.66615565 2.88922957 33.63088953 3.12797131 28.41796875 3.1328125 C27.44117912 3.13424759 27.44117912 3.13424759 26.44465637 3.13571167 C25.06523543 3.13639252 23.68581128 3.13454481 22.30639648 3.13037109 C20.20614302 3.12504726 18.10610594 3.13030578 16.00585938 3.13671875 C14.66406203 3.13605745 13.32226482 3.1347752 11.98046875 3.1328125 C10.76254639 3.13168457 9.54462402 3.13055664 8.28979492 3.12939453 C5.39480042 3.01552833 2.81098155 2.66974055 0 2 C0 1.34 0 0.68 0 0 Z " fill="#151515" transform="translate(390,639)"/>
<path d="M0 0 C-0.99 0.495 -0.99 0.495 -2 1 C-1.34 1.66 -0.68 2.32 0 3 C-10.50783681 5.3197327 -20.22591491 6.4179602 -31 6 C-27.34410794 2.34410794 -21.5719576 2.27930519 -16.625 1.3125 C-14.90023438 0.95575195 -14.90023438 0.95575195 -13.140625 0.59179688 C-12.03460938 0.37201172 -10.92859375 0.15222656 -9.7890625 -0.07421875 C-8.77537598 -0.27619873 -7.76168945 -0.47817871 -6.71728516 -0.6862793 C-4.10401422 -0.98799117 -2.46534069 -0.83953852 0 0 Z " fill="#1A1A1A" transform="translate(459,627)"/>
<path d="M0 0 C0.8559375 0.13277344 1.711875 0.26554688 2.59375 0.40234375 C17.98552361 2.51101673 33.48937435 2.65080865 49 3 C49 3.33 49 3.66 49 4 C39.43 4 29.86 4 20 4 C20 4.66 20 5.32 20 6 C13.26257354 6.11044961 6.70019789 5.70132913 0 5 C0 4.67 0 4.34 0 4 C2.64 3.67 5.28 3.34 8 3 C5.36 2.34 2.72 1.68 0 1 C0 0.67 0 0.34 0 0 Z " fill="#373737" transform="translate(370,635)"/>
<path d="M0 0 C0.66 0.33 1.32 0.66 2 1 C-8.89 11.89 -19.78 22.78 -31 34 C-31.66 33.67 -32.32 33.34 -33 33 C-10.32926829 8.45121951 -10.32926829 8.45121951 0 0 Z " fill="#262626" transform="translate(218,106)"/>
<path d="M0 0 C2.45895618 0.30811738 4.91708307 0.62128988 7.375 0.9375 C8.07367188 1.02451172 8.77234375 1.11152344 9.4921875 1.20117188 C14.7734375 1.88671875 14.7734375 1.88671875 17 3 C19.71262116 3.2322646 22.40773126 3.41936235 25.125 3.5625 C26.25615234 3.62727539 26.25615234 3.62727539 27.41015625 3.69335938 C29.27321888 3.7994832 31.13658524 3.90025001 33 4 C33 4.33 33 4.66 33 5 C4.64207904 5.41277905 4.64207904 5.41277905 -6 3 C-6 2.67 -6 2.34 -6 2 C-4.02 2 -2.04 2 0 2 C0 1.34 0 0.68 0 0 Z " fill="#F2F2F2" transform="translate(384,620)"/>
<path d="M0 0 C12.03942433 -0.13873856 23.98321123 0.26131705 36 1 C35.67 1.66 35.34 2.32 35 3 C31.04173069 3.05880857 27.08357608 3.09386513 23.125 3.125 C21.46210938 3.15013672 21.46210938 3.15013672 19.765625 3.17578125 C12.92127221 3.21604215 6.64485173 2.66732206 0 1 C0 0.67 0 0.34 0 0 Z " fill="#DADADA" transform="translate(387,629)"/>
<path d="M0 0 C0.66 0.33 1.32 0.66 2 1 C-7.24 10.24 -16.48 19.48 -26 29 C-26.66 28.67 -27.32 28.34 -28 28 C-19.01086556 18.25375932 -9.97511645 8.74711916 0 0 Z " fill="#D0D0D0" transform="translate(241,179)"/>
<path d="M0 0 C0.66 0.33 1.32 0.66 2 1 C-5.59 8.59 -13.18 16.18 -21 24 C-21.66 23.67 -22.32 23.34 -23 23 C-6.77678571 5.13392857 -6.77678571 5.13392857 0 0 Z " fill="#D1D1D1" transform="translate(285,296)"/>
<path d="M0 0 C-0.99 0.495 -0.99 0.495 -2 1 C-1.34 1.66 -0.68 2.32 0 3 C-6.80074041 4.90420731 -12.91923749 6.40850553 -20 6 C-18.59742285 3.19484571 -16.61889801 2.96825048 -13.77539062 1.99804688 C-12.74188477 1.65870117 -12.74188477 1.65870117 -11.6875 1.3125 C-10.67139648 0.95575195 -10.67139648 0.95575195 -9.63476562 0.59179688 C-3.45848063 -1.46696479 -3.45848063 -1.46696479 0 0 Z " fill="#ECECEC" transform="translate(476,627)"/>
<path d="M0 0 C8.30033557 -0.16275168 8.30033557 -0.16275168 12 1 C12.66 1.99 13.32 2.98 14 4 C3.55286325 4.37534623 -6.64511186 3.21312497 -17 2 C-17 1.67 -17 1.34 -17 1 C-11.39 1 -5.78 1 0 1 C0 0.67 0 0.34 0 0 Z " fill="#313131" transform="translate(390,631)"/>
<path d="M0 0 C-0.9590625 0.4640625 -0.9590625 0.4640625 -1.9375 0.9375 C-3.93610821 1.8345163 -3.93610821 1.8345163 -5 3 C-14.90906592 3.71682605 -25.09757705 2.57464838 -35 2 C-35 1.67 -35 1.34 -35 1 C-23.32446893 0.37160039 -11.69591188 -0.17691295 0 0 Z " fill="#C7C7C7" transform="translate(439,628)"/>
<path d="M0 0 C-2.64 0.66 -5.28 1.32 -8 2 C-4.37 2 -0.74 2 3 2 C-1.26329551 4.13164775 -4.61201724 4.42833642 -9.25 4.625 C-9.99507813 4.66367187 -10.74015625 4.70234375 -11.5078125 4.7421875 C-13.3381524 4.83605108 -15.16904143 4.91909718 -17 5 C-16.67 4.34 -16.34 3.68 -16 3 C-16.66 2.34 -17.32 1.68 -18 1 C-15.75152519 0.63627613 -13.50113812 0.28435904 -11.25 -0.0625 C-9.99703125 -0.25972656 -8.7440625 -0.45695313 -7.453125 -0.66015625 C-4 -1 -4 -1 0 0 Z " fill="#303030" transform="translate(458,635)"/>
<path d="M0 0 C-2.475 1.485 -2.475 1.485 -5 3 C-4.01 3.66 -3.02 4.32 -2 5 C-5.96 5.99 -9.92 6.98 -14 8 C-13.67 7.01 -13.34 6.02 -13 5 C-14.98 5.33 -16.96 5.66 -19 6 C-16.26999329 3.26999329 -13.08654533 2.48902094 -9.5 1.3125 C-8.81035156 1.07466797 -8.12070312 0.83683594 -7.41015625 0.59179688 C-2.24786849 -1.12393424 -2.24786849 -1.12393424 0 0 Z " fill="#CECECE" transform="translate(472,618)"/>
<path d="M0 0 C6.7857936 0.54863863 13.35009036 1.54267938 20 3 C20 3.33 20 3.66 20 4 C16.41673499 4.05814085 12.83359162 4.09364357 9.25 4.125 C8.23421875 4.14175781 7.2184375 4.15851562 6.171875 4.17578125 C5.1921875 4.18222656 4.2125 4.18867187 3.203125 4.1953125 C1.85202637 4.21102295 1.85202637 4.21102295 0.47363281 4.22705078 C-2.13926856 3.98721676 -3.75664666 3.32312064 -6 2 C-4.02 2 -2.04 2 0 2 C0 1.34 0 0.68 0 0 Z " fill="#1B1B1B" transform="translate(393,618)"/>
<path d="M0 0 C-0.33 0.99 -0.66 1.98 -1 3 C-8.16562789 3.28100502 -14.94546999 2.20443195 -22 1 C-15.85039183 -3.09973878 -7.03861366 -0.90820821 0 0 Z " fill="#CACACA" transform="translate(394,628)"/>
<path d="M0 0 C3.75 1.0625 3.75 1.0625 6 2 C6 2.33 6 2.66 6 3 C-1.3905476 3.14715692 -8.64424835 2.70776992 -16 2 C-11.17245241 -2.46952372 -6.08041 -0.95665117 0 0 Z " fill="#121212" transform="translate(385,630)"/>
<path d="M0 0 C-0.99 0.33 -1.98 0.66 -3 1 C-1.68 1.66 -0.36 2.32 1 3 C-3.78585167 3.95717033 -8.1414266 4.31859498 -13 4 C-14.73828125 2.484375 -14.73828125 2.484375 -16 1 C-14.0852312 0.63571223 -12.16807707 0.28394694 -10.25 -0.0625 C-9.18265625 -0.25972656 -8.1153125 -0.45695313 -7.015625 -0.66015625 C-4.25228095 -0.97156937 -2.59053383 -0.8991416 0 0 Z " fill="#222222" transform="translate(439,624)"/>
<path d="M0 0 C0.66 0.33 1.32 0.66 2 1 C-4.6 7.6 -11.2 14.2 -18 21 C-18.66 20.67 -19.32 20.34 -20 20 C-15.5446472 14.77443994 -11.00968215 9.94667977 -5.765625 5.5078125 C-3.73452487 3.77328894 -1.84929177 1.92634559 0 0 Z " fill="#1F1F1F" transform="translate(263,224)"/>
<path d="M0 0 C0.66 0.33 1.32 0.66 2 1 C-2.95 5.95 -7.9 10.9 -13 16 C-13.66 15.67 -14.32 15.34 -15 15 C-13.44221619 13.2456027 -11.87905295 11.49653989 -10.3125 9.75 C-9.44238281 8.77546875 -8.57226562 7.8009375 -7.67578125 6.796875 C-5.25206689 4.26347429 -2.7912151 2.11227089 0 0 Z " fill="#CECECE" transform="translate(365,485)"/>
<path d="M0 0 C0.66 0.33 1.32 0.66 2 1 C-3.28 6.28 -8.56 11.56 -14 17 C-14.66 16.67 -15.32 16.34 -16 16 C-12.21309138 11.36103694 -8.30424428 7.3506875 -3.734375 3.48046875 C-1.91019463 1.96268408 -1.91019463 1.96268408 0 0 Z " fill="#292929" transform="translate(344,439)"/>
<path d="M0 0 C3.3 0.33 6.6 0.66 10 1 C7.11586541 3.88413459 3.90770251 3.84565627 0 4 C-2.39057405 3.81162456 -4.63740834 3.44298594 -7 3 C-7 2.67 -7 2.34 -7 2 C-4.69 2 -2.38 2 0 2 C0 1.34 0 0.68 0 0 Z " fill="#252525" transform="translate(385,624)"/>
<path d="M0 0 C-0.33 0.33 -0.66 0.66 -1 1 C-0.01 1.66 0.98 2.32 2 3 C-0.88211302 3.96070434 -2.69850044 4.10581883 -5.6875 4.0625 C-6.89986328 4.04896484 -6.89986328 4.04896484 -8.13671875 4.03515625 C-9.05904297 4.01775391 -9.05904297 4.01775391 -10 4 C-9.67 3.01 -9.34 2.02 -9 1 C-2.63157895 -1.31578947 -2.63157895 -1.31578947 0 0 Z " fill="#DEDEDE" transform="translate(445,618)"/>
<path d="M0 0 C2.97 0.33 5.94 0.66 9 1 C7.02 1.99 7.02 1.99 5 3 C5.99 3.66 6.98 4.32 8 5 C6.58249437 4.88490339 5.16598831 4.75746342 3.75 4.625 C2.96109375 4.55539062 2.1721875 4.48578125 1.359375 4.4140625 C-1.085877 3.98492887 -2.84836903 3.21399362 -5 2 C-3.35 2 -1.7 2 0 2 C0 1.34 0 0.68 0 0 Z " fill="#C9C9C9" transform="translate(360,630)"/>
<path d="M0 0 C0 0.66 0 1.32 0 2 C1.65 2 3.3 2 5 2 C5 2.33 5 2.66 5 3 C3.25285767 3.25002209 1.50200859 3.47423194 -0.25 3.6875 C-1.71179688 3.87892578 -1.71179688 3.87892578 -3.203125 4.07421875 C-6.48272731 3.9871902 -7.63310671 3.19219402 -10 1 C-6.56484998 0.37542727 -3.50935186 0 0 0 Z " fill="#C7C7C7" transform="translate(435,620)"/>
<path d="M0 0 C2.31 0.33 4.62 0.66 7 1 C6.67 1.99 6.34 2.98 6 4 C-2.57142857 4.28571429 -2.57142857 4.28571429 -6 2 C-4.02 2 -2.04 2 0 2 C0 1.34 0 0.68 0 0 Z " fill="#C7C7C7" transform="translate(384,620)"/>
<path d="M0 0 C0.66 0.33 1.32 0.66 2 1 C-1.63 4.63 -5.26 8.26 -9 12 C-9.66 11.67 -10.32 11.34 -11 11 C-9.92173635 9.72486237 -8.83714481 8.45507431 -7.75 7.1875 C-7.14671875 6.47980469 -6.5434375 5.77210938 -5.921875 5.04296875 C-4.07629602 3.08110329 -2.20054668 1.54330375 0 0 Z " fill="#272727" transform="translate(388,154)"/>
<path d="M0 0 C0 0.99 0 1.98 0 3 C-4.29 3 -8.58 3 -13 3 C-9.64549207 -0.35450793 -4.56739027 0 0 0 Z " fill="#ECECEC" transform="translate(454,632)"/>
<path d="M0 0 C-0.99 0.495 -0.99 0.495 -2 1 C-1.34 1.66 -0.68 2.32 0 3 C-2.31 3.33 -4.62 3.66 -7 4 C-7 3.34 -7 2.68 -7 2 C-8.32 1.67 -9.64 1.34 -11 1 C-3.57142857 -1.42857143 -3.57142857 -1.42857143 0 0 Z " fill="#D7D7D7" transform="translate(476,627)"/>
<path d="M0 0 C-0.33 0.99 -0.66 1.98 -1 3 C-3.88211302 3.96070434 -5.69850044 4.10581883 -8.6875 4.0625 C-9.89986328 4.04896484 -9.89986328 4.04896484 -11.13671875 4.03515625 C-12.05904297 4.01775391 -12.05904297 4.01775391 -13 4 C-10.34531286 2.23020858 -8.92500069 1.57859829 -5.9375 0.875 C-5.24527344 0.70742188 -4.55304688 0.53984375 -3.83984375 0.3671875 C-2 0 -2 0 0 0 Z " fill="#EAEAEA" transform="translate(459,623)"/>
<path d="M0 0 C3.63 0 7.26 0 11 0 C10.01 1.485 10.01 1.485 9 3 C6.6171875 3.29296875 6.6171875 3.29296875 3.875 3.1875 C2.96492188 3.16042969 2.05484375 3.13335938 1.1171875 3.10546875 C0.41851562 3.07066406 -0.28015625 3.03585937 -1 3 C-0.67 2.01 -0.34 1.02 0 0 Z " fill="#111111" transform="translate(416,626)"/>
<path d="M0 0 C-2.475 1.485 -2.475 1.485 -5 3 C-4.67 3.66 -4.34 4.32 -4 5 C-5.32 5.33 -6.64 5.66 -8 6 C-7.67 5.01 -7.34 4.02 -7 3 C-8.98 3.33 -10.96 3.66 -13 4 C-10.81006393 1.81006393 -9.4012702 1.27802011 -6.5 0.3125 C-5.7059375 0.04050781 -4.911875 -0.23148438 -4.09375 -0.51171875 C-2 -1 -2 -1 0 0 Z " fill="#AFAFAF" transform="translate(466,620)"/>
<path d="M0 0 C1.65 0.33 3.3 0.66 5 1 C4.67 1.66 4.34 2.32 4 3 C4.66 3.66 5.32 4.32 6 5 C4.741875 4.87625 3.48375 4.7525 2.1875 4.625 C1.12595703 4.52058594 1.12595703 4.52058594 0.04296875 4.4140625 C-2 4 -2 4 -5 2 C-3.35 2 -1.7 2 0 2 C0 1.34 0 0.68 0 0 Z " fill="#BDBDBD" transform="translate(357,621)"/>
<path d="M0 0 C-2 2 -2 2 -4.3828125 2.1953125 C-5.28773438 2.17210937 -6.19265625 2.14890625 -7.125 2.125 C-8.49011719 2.09792969 -8.49011719 2.09792969 -9.8828125 2.0703125 C-10.58148438 2.04710937 -11.28015625 2.02390625 -12 2 C-11.67 1.34 -11.34 0.68 -11 0 C-7.08234111 -0.81309902 -3.82092412 -1.37553268 0 0 Z " fill="#030303" transform="translate(443,638)"/>
<path d="M0 0 C1.52519276 0.08937803 3.04681929 0.24537146 4.5625 0.4375 C5.80193359 0.59025391 5.80193359 0.59025391 7.06640625 0.74609375 C7.70449219 0.82988281 8.34257812 0.91367187 9 1 C8.01 1.33 7.02 1.66 6 2 C6 2.66 6 3.32 6 4 C4.68 4 3.36 4 2 4 C2 3.34 2 2.68 2 2 C1.01 1.67 0.02 1.34 -1 1 C-0.67 0.67 -0.34 0.34 0 0 Z " fill="#D5D5D5" transform="translate(361,623)"/>
<path d="M0 0 C0.90105469 0.01804687 1.80210937 0.03609375 2.73046875 0.0546875 C3.41753906 0.07789063 4.10460937 0.10109375 4.8125 0.125 C3.63671875 1.64453125 3.63671875 1.64453125 1.8125 3.125 C-0.66796875 3.19921875 -0.66796875 3.19921875 -3.375 2.8125 C-4.72658203 2.63267578 -4.72658203 2.63267578 -6.10546875 2.44921875 C-7.13607422 2.28873047 -7.13607422 2.28873047 -8.1875 2.125 C-4.87379 -0.08414 -3.8428979 -0.09981553 0 0 Z " fill="#C2C2C2" transform="translate(380.1875,626.875)"/>
<path d="M0 0 C0.66 0.33 1.32 0.66 2 1 C-0.97 3.97 -3.94 6.94 -7 10 C-7 7 -7 7 -4.625 4.4375 C-3.75875 3.633125 -2.8925 2.82875 -2 2 C-1.34 1.34 -0.68 0.68 0 0 Z " fill="#282828" transform="translate(395,69)"/>
<path d="M0 0 C3.3 0 6.6 0 10 0 C6 3 6 3 3.3125 2.8125 C1 2 1 2 0 0 Z " fill="#E0E0E0" transform="translate(389,622)"/>
<path d="M0 0 C3.3 0 6.6 0 10 0 C9.67 0.99 9.34 1.98 9 3 C8.1646875 2.7834375 8.1646875 2.7834375 7.3125 2.5625 C4.88615805 1.97230872 2.45093655 1.476571 0 1 C0 0.67 0 0.34 0 0 Z " fill="#1B1B1B" transform="translate(416,619)"/>
</svg>
